<mxfile host="app.diagrams.net" agent="Mozilla/5.0 (Macintosh; Intel Mac OS X 10_15_7) AppleWebKit/537.36 (KHTML, like Gecko) Chrome/135.0.0.0 Safari/537.36" version="26.2.14">
  <diagram id="C5RBs43oDa-KdzZeNtuy" name="Page-1">
    <mxGraphModel dx="5507" dy="3969" grid="1" gridSize="10" guides="1" tooltips="1" connect="1" arrows="1" fold="1" page="1" pageScale="1" pageWidth="827" pageHeight="1169" math="0" shadow="0">
      <root>
        <mxCell id="WIyWlLk6GJQsqaUBKTNV-0" />
        <mxCell id="WIyWlLk6GJQsqaUBKTNV-1" parent="WIyWlLk6GJQsqaUBKTNV-0" />
        <mxCell id="c6qLf4H38Sc4OMnuLa_u-4" value="" style="edgeStyle=orthogonalEdgeStyle;rounded=0;orthogonalLoop=1;jettySize=auto;html=1;" edge="1" parent="WIyWlLk6GJQsqaUBKTNV-1" source="c6qLf4H38Sc4OMnuLa_u-0" target="c6qLf4H38Sc4OMnuLa_u-3">
          <mxGeometry relative="1" as="geometry" />
        </mxCell>
        <mxCell id="c6qLf4H38Sc4OMnuLa_u-0" value="&lt;p&gt;&lt;font style=&quot;font-size: 14px;&quot;&gt;START&lt;/font&gt;&lt;/p&gt;" style="ellipse;whiteSpace=wrap;html=1;" vertex="1" parent="WIyWlLk6GJQsqaUBKTNV-1">
          <mxGeometry x="140" y="40" width="120" height="80" as="geometry" />
        </mxCell>
        <mxCell id="c6qLf4H38Sc4OMnuLa_u-6" value="" style="edgeStyle=orthogonalEdgeStyle;rounded=0;orthogonalLoop=1;jettySize=auto;html=1;" edge="1" parent="WIyWlLk6GJQsqaUBKTNV-1" source="c6qLf4H38Sc4OMnuLa_u-3" target="c6qLf4H38Sc4OMnuLa_u-5">
          <mxGeometry relative="1" as="geometry" />
        </mxCell>
        <mxCell id="c6qLf4H38Sc4OMnuLa_u-38" value="" style="edgeStyle=orthogonalEdgeStyle;rounded=0;orthogonalLoop=1;jettySize=auto;html=1;" edge="1" parent="WIyWlLk6GJQsqaUBKTNV-1" source="c6qLf4H38Sc4OMnuLa_u-3" target="c6qLf4H38Sc4OMnuLa_u-37">
          <mxGeometry relative="1" as="geometry" />
        </mxCell>
        <mxCell id="c6qLf4H38Sc4OMnuLa_u-3" value="IS USER&amp;nbsp;&lt;div&gt;LOGGED IN ?&lt;/div&gt;" style="rhombus;whiteSpace=wrap;html=1;" vertex="1" parent="WIyWlLk6GJQsqaUBKTNV-1">
          <mxGeometry x="137.5" y="170" width="125" height="120" as="geometry" />
        </mxCell>
        <mxCell id="c6qLf4H38Sc4OMnuLa_u-8" value="" style="edgeStyle=orthogonalEdgeStyle;rounded=0;orthogonalLoop=1;jettySize=auto;html=1;" edge="1" parent="WIyWlLk6GJQsqaUBKTNV-1" source="c6qLf4H38Sc4OMnuLa_u-5" target="c6qLf4H38Sc4OMnuLa_u-7">
          <mxGeometry relative="1" as="geometry" />
        </mxCell>
        <mxCell id="c6qLf4H38Sc4OMnuLa_u-5" value="ACCEPT PHONE&lt;div&gt;INPUT&lt;/div&gt;" style="whiteSpace=wrap;html=1;" vertex="1" parent="WIyWlLk6GJQsqaUBKTNV-1">
          <mxGeometry x="140" y="360" width="120" height="60" as="geometry" />
        </mxCell>
        <mxCell id="c6qLf4H38Sc4OMnuLa_u-10" value="" style="edgeStyle=orthogonalEdgeStyle;rounded=0;orthogonalLoop=1;jettySize=auto;html=1;" edge="1" parent="WIyWlLk6GJQsqaUBKTNV-1" source="c6qLf4H38Sc4OMnuLa_u-7" target="c6qLf4H38Sc4OMnuLa_u-9">
          <mxGeometry relative="1" as="geometry" />
        </mxCell>
        <mxCell id="c6qLf4H38Sc4OMnuLa_u-7" value="SEARCH FOR&amp;nbsp;&lt;div&gt;PHONE MODEL&lt;/div&gt;" style="whiteSpace=wrap;html=1;" vertex="1" parent="WIyWlLk6GJQsqaUBKTNV-1">
          <mxGeometry x="140" y="500" width="120" height="60" as="geometry" />
        </mxCell>
        <mxCell id="c6qLf4H38Sc4OMnuLa_u-12" value="" style="edgeStyle=orthogonalEdgeStyle;rounded=0;orthogonalLoop=1;jettySize=auto;html=1;" edge="1" parent="WIyWlLk6GJQsqaUBKTNV-1" source="c6qLf4H38Sc4OMnuLa_u-9" target="c6qLf4H38Sc4OMnuLa_u-11">
          <mxGeometry relative="1" as="geometry" />
        </mxCell>
        <mxCell id="c6qLf4H38Sc4OMnuLa_u-9" value="DISPLAY PHONE&amp;nbsp;&lt;div&gt;DATA&lt;/div&gt;" style="whiteSpace=wrap;html=1;" vertex="1" parent="WIyWlLk6GJQsqaUBKTNV-1">
          <mxGeometry x="140" y="640" width="120" height="60" as="geometry" />
        </mxCell>
        <mxCell id="c6qLf4H38Sc4OMnuLa_u-42" value="" style="edgeStyle=orthogonalEdgeStyle;curved=1;rounded=0;orthogonalLoop=1;jettySize=auto;html=1;" edge="1" parent="WIyWlLk6GJQsqaUBKTNV-1" source="c6qLf4H38Sc4OMnuLa_u-11" target="c6qLf4H38Sc4OMnuLa_u-41">
          <mxGeometry relative="1" as="geometry" />
        </mxCell>
        <mxCell id="c6qLf4H38Sc4OMnuLa_u-11" value="CONTINUE&lt;div&gt;WITH SWAP ?&lt;/div&gt;" style="rhombus;whiteSpace=wrap;html=1;" vertex="1" parent="WIyWlLk6GJQsqaUBKTNV-1">
          <mxGeometry x="135" y="760" width="130" height="110" as="geometry" />
        </mxCell>
        <mxCell id="c6qLf4H38Sc4OMnuLa_u-23" value="" style="edgeStyle=orthogonalEdgeStyle;rounded=0;orthogonalLoop=1;jettySize=auto;html=1;" edge="1" parent="WIyWlLk6GJQsqaUBKTNV-1" source="c6qLf4H38Sc4OMnuLa_u-13" target="c6qLf4H38Sc4OMnuLa_u-22">
          <mxGeometry relative="1" as="geometry" />
        </mxCell>
        <mxCell id="c6qLf4H38Sc4OMnuLa_u-13" value="MULTISTEP FORM" style="whiteSpace=wrap;html=1;" vertex="1" parent="WIyWlLk6GJQsqaUBKTNV-1">
          <mxGeometry x="140" y="975" width="120" height="60" as="geometry" />
        </mxCell>
        <mxCell id="c6qLf4H38Sc4OMnuLa_u-15" value="" style="endArrow=classic;html=1;rounded=0;exitX=0.5;exitY=1;exitDx=0;exitDy=0;" edge="1" parent="WIyWlLk6GJQsqaUBKTNV-1" source="c6qLf4H38Sc4OMnuLa_u-11">
          <mxGeometry relative="1" as="geometry">
            <mxPoint x="250" y="931.1794117647061" as="sourcePoint" />
            <mxPoint x="200" y="970" as="targetPoint" />
          </mxGeometry>
        </mxCell>
        <mxCell id="c6qLf4H38Sc4OMnuLa_u-16" value="YES" style="edgeLabel;resizable=0;html=1;;align=center;verticalAlign=middle;" connectable="0" vertex="1" parent="c6qLf4H38Sc4OMnuLa_u-15">
          <mxGeometry relative="1" as="geometry" />
        </mxCell>
        <mxCell id="c6qLf4H38Sc4OMnuLa_u-19" value="YES" style="text;html=1;align=center;verticalAlign=middle;whiteSpace=wrap;rounded=0;" vertex="1" parent="WIyWlLk6GJQsqaUBKTNV-1">
          <mxGeometry x="190" y="300" width="60" height="30" as="geometry" />
        </mxCell>
        <mxCell id="c6qLf4H38Sc4OMnuLa_u-25" value="" style="edgeStyle=orthogonalEdgeStyle;rounded=0;orthogonalLoop=1;jettySize=auto;html=1;" edge="1" parent="WIyWlLk6GJQsqaUBKTNV-1" source="c6qLf4H38Sc4OMnuLa_u-22" target="c6qLf4H38Sc4OMnuLa_u-24">
          <mxGeometry relative="1" as="geometry" />
        </mxCell>
        <mxCell id="c6qLf4H38Sc4OMnuLa_u-46" value="" style="edgeStyle=orthogonalEdgeStyle;curved=1;rounded=0;orthogonalLoop=1;jettySize=auto;html=1;" edge="1" parent="WIyWlLk6GJQsqaUBKTNV-1" source="c6qLf4H38Sc4OMnuLa_u-22" target="c6qLf4H38Sc4OMnuLa_u-45">
          <mxGeometry relative="1" as="geometry" />
        </mxCell>
        <mxCell id="c6qLf4H38Sc4OMnuLa_u-22" value="IS FORM&lt;div&gt;VALID&lt;/div&gt;" style="rhombus;whiteSpace=wrap;html=1;" vertex="1" parent="WIyWlLk6GJQsqaUBKTNV-1">
          <mxGeometry x="140" y="1110" width="120" height="115" as="geometry" />
        </mxCell>
        <mxCell id="c6qLf4H38Sc4OMnuLa_u-28" value="" style="edgeStyle=orthogonalEdgeStyle;rounded=0;orthogonalLoop=1;jettySize=auto;html=1;" edge="1" parent="WIyWlLk6GJQsqaUBKTNV-1" source="c6qLf4H38Sc4OMnuLa_u-24" target="c6qLf4H38Sc4OMnuLa_u-27">
          <mxGeometry relative="1" as="geometry" />
        </mxCell>
        <mxCell id="c6qLf4H38Sc4OMnuLa_u-24" value="SEND DATA TO DB" style="whiteSpace=wrap;html=1;" vertex="1" parent="WIyWlLk6GJQsqaUBKTNV-1">
          <mxGeometry x="140" y="1332.5" width="120" height="60" as="geometry" />
        </mxCell>
        <mxCell id="c6qLf4H38Sc4OMnuLa_u-26" value="YES" style="text;html=1;align=center;verticalAlign=middle;whiteSpace=wrap;rounded=0;" vertex="1" parent="WIyWlLk6GJQsqaUBKTNV-1">
          <mxGeometry x="190" y="1250" width="60" height="30" as="geometry" />
        </mxCell>
        <mxCell id="c6qLf4H38Sc4OMnuLa_u-30" value="" style="edgeStyle=orthogonalEdgeStyle;rounded=0;orthogonalLoop=1;jettySize=auto;html=1;" edge="1" parent="WIyWlLk6GJQsqaUBKTNV-1" source="c6qLf4H38Sc4OMnuLa_u-27" target="c6qLf4H38Sc4OMnuLa_u-139">
          <mxGeometry relative="1" as="geometry">
            <mxPoint x="200" y="1612.5000000000005" as="targetPoint" />
          </mxGeometry>
        </mxCell>
        <mxCell id="c6qLf4H38Sc4OMnuLa_u-27" value="RECIEVE PROCESSED&lt;div&gt;DATA AS RES&lt;/div&gt;" style="whiteSpace=wrap;html=1;" vertex="1" parent="WIyWlLk6GJQsqaUBKTNV-1">
          <mxGeometry x="140" y="1472.5" width="120" height="60" as="geometry" />
        </mxCell>
        <mxCell id="c6qLf4H38Sc4OMnuLa_u-32" value="" style="edgeStyle=orthogonalEdgeStyle;rounded=0;orthogonalLoop=1;jettySize=auto;html=1;" edge="1" parent="WIyWlLk6GJQsqaUBKTNV-1" target="c6qLf4H38Sc4OMnuLa_u-31">
          <mxGeometry relative="1" as="geometry">
            <mxPoint x="200" y="1672.5000000000005" as="sourcePoint" />
          </mxGeometry>
        </mxCell>
        <mxCell id="c6qLf4H38Sc4OMnuLa_u-53" value="" style="edgeStyle=orthogonalEdgeStyle;curved=1;rounded=0;orthogonalLoop=1;jettySize=auto;html=1;" edge="1" parent="WIyWlLk6GJQsqaUBKTNV-1" source="c6qLf4H38Sc4OMnuLa_u-31" target="c6qLf4H38Sc4OMnuLa_u-52">
          <mxGeometry relative="1" as="geometry" />
        </mxCell>
        <mxCell id="c6qLf4H38Sc4OMnuLa_u-67" style="edgeStyle=orthogonalEdgeStyle;curved=1;rounded=0;orthogonalLoop=1;jettySize=auto;html=1;" edge="1" parent="WIyWlLk6GJQsqaUBKTNV-1" source="c6qLf4H38Sc4OMnuLa_u-51">
          <mxGeometry relative="1" as="geometry">
            <mxPoint x="883.3033333333334" y="209.98" as="targetPoint" />
            <mxPoint x="-20.03" y="1811.23" as="sourcePoint" />
          </mxGeometry>
        </mxCell>
        <mxCell id="c6qLf4H38Sc4OMnuLa_u-31" value="SWAP NOW&amp;nbsp;&lt;div&gt;OR SAVE&lt;/div&gt;&lt;div&gt;RESULT&lt;/div&gt;" style="rhombus;whiteSpace=wrap;html=1;" vertex="1" parent="WIyWlLk6GJQsqaUBKTNV-1">
          <mxGeometry x="140" y="1750" width="120" height="122.5" as="geometry" />
        </mxCell>
        <mxCell id="c6qLf4H38Sc4OMnuLa_u-40" style="edgeStyle=orthogonalEdgeStyle;curved=1;rounded=0;orthogonalLoop=1;jettySize=auto;html=1;entryX=1;entryY=0.5;entryDx=0;entryDy=0;" edge="1" parent="WIyWlLk6GJQsqaUBKTNV-1" source="c6qLf4H38Sc4OMnuLa_u-37" target="c6qLf4H38Sc4OMnuLa_u-5">
          <mxGeometry relative="1" as="geometry" />
        </mxCell>
        <mxCell id="c6qLf4H38Sc4OMnuLa_u-37" value="REDIRECT TO LOGIN / REGISTER" style="rounded=1;whiteSpace=wrap;html=1;" vertex="1" parent="WIyWlLk6GJQsqaUBKTNV-1">
          <mxGeometry x="345" y="200" width="120" height="60" as="geometry" />
        </mxCell>
        <mxCell id="c6qLf4H38Sc4OMnuLa_u-39" value="NO" style="text;html=1;align=center;verticalAlign=middle;whiteSpace=wrap;rounded=0;" vertex="1" parent="WIyWlLk6GJQsqaUBKTNV-1">
          <mxGeometry x="270" y="200" width="60" height="30" as="geometry" />
        </mxCell>
        <mxCell id="c6qLf4H38Sc4OMnuLa_u-41" value="BACK TO SELECTION SCREEN" style="rounded=1;whiteSpace=wrap;html=1;" vertex="1" parent="WIyWlLk6GJQsqaUBKTNV-1">
          <mxGeometry x="350" y="785" width="120" height="60" as="geometry" />
        </mxCell>
        <mxCell id="c6qLf4H38Sc4OMnuLa_u-43" value="&lt;div&gt;NO&lt;/div&gt;" style="text;html=1;align=center;verticalAlign=middle;whiteSpace=wrap;rounded=0;" vertex="1" parent="WIyWlLk6GJQsqaUBKTNV-1">
          <mxGeometry x="270" y="790" width="60" height="30" as="geometry" />
        </mxCell>
        <mxCell id="c6qLf4H38Sc4OMnuLa_u-49" value="" style="edgeStyle=orthogonalEdgeStyle;curved=1;rounded=0;orthogonalLoop=1;jettySize=auto;html=1;" edge="1" parent="WIyWlLk6GJQsqaUBKTNV-1" source="c6qLf4H38Sc4OMnuLa_u-45" target="c6qLf4H38Sc4OMnuLa_u-48">
          <mxGeometry relative="1" as="geometry" />
        </mxCell>
        <mxCell id="c6qLf4H38Sc4OMnuLa_u-45" value="SHOW ERROR MESSAGE&amp;nbsp;" style="rounded=1;whiteSpace=wrap;html=1;" vertex="1" parent="WIyWlLk6GJQsqaUBKTNV-1">
          <mxGeometry x="340" y="1137.5" width="120" height="60" as="geometry" />
        </mxCell>
        <mxCell id="c6qLf4H38Sc4OMnuLa_u-47" value="NO" style="text;html=1;align=center;verticalAlign=middle;whiteSpace=wrap;rounded=0;" vertex="1" parent="WIyWlLk6GJQsqaUBKTNV-1">
          <mxGeometry x="260" y="1139" width="60" height="30" as="geometry" />
        </mxCell>
        <mxCell id="c6qLf4H38Sc4OMnuLa_u-50" style="edgeStyle=orthogonalEdgeStyle;curved=1;rounded=0;orthogonalLoop=1;jettySize=auto;html=1;" edge="1" parent="WIyWlLk6GJQsqaUBKTNV-1" source="c6qLf4H38Sc4OMnuLa_u-48">
          <mxGeometry relative="1" as="geometry">
            <mxPoint x="199.9999999999999" y="1330" as="targetPoint" />
            <Array as="points">
              <mxPoint x="600" y="1260" />
              <mxPoint x="200" y="1260" />
            </Array>
          </mxGeometry>
        </mxCell>
        <mxCell id="c6qLf4H38Sc4OMnuLa_u-48" value="CORRECT ERROR" style="whiteSpace=wrap;html=1;rounded=1;" vertex="1" parent="WIyWlLk6GJQsqaUBKTNV-1">
          <mxGeometry x="540" y="1137.5" width="120" height="60" as="geometry" />
        </mxCell>
        <mxCell id="c6qLf4H38Sc4OMnuLa_u-57" value="" style="edgeStyle=orthogonalEdgeStyle;curved=1;rounded=0;orthogonalLoop=1;jettySize=auto;html=1;" edge="1" parent="WIyWlLk6GJQsqaUBKTNV-1" source="c6qLf4H38Sc4OMnuLa_u-52" target="c6qLf4H38Sc4OMnuLa_u-56">
          <mxGeometry relative="1" as="geometry" />
        </mxCell>
        <mxCell id="c6qLf4H38Sc4OMnuLa_u-60" value="" style="edgeStyle=orthogonalEdgeStyle;curved=1;rounded=0;orthogonalLoop=1;jettySize=auto;html=1;" edge="1" parent="WIyWlLk6GJQsqaUBKTNV-1" source="c6qLf4H38Sc4OMnuLa_u-52" target="c6qLf4H38Sc4OMnuLa_u-59">
          <mxGeometry relative="1" as="geometry" />
        </mxCell>
        <mxCell id="c6qLf4H38Sc4OMnuLa_u-52" value="SAVE&amp;nbsp;&lt;div&gt;SCREENSHOT&lt;/div&gt;" style="whiteSpace=wrap;html=1;" vertex="1" parent="WIyWlLk6GJQsqaUBKTNV-1">
          <mxGeometry x="400" y="1781.25" width="120" height="60" as="geometry" />
        </mxCell>
        <mxCell id="c6qLf4H38Sc4OMnuLa_u-54" value="SAVE" style="text;html=1;align=center;verticalAlign=middle;whiteSpace=wrap;rounded=0;" vertex="1" parent="WIyWlLk6GJQsqaUBKTNV-1">
          <mxGeometry x="300" y="1781.25" width="60" height="30" as="geometry" />
        </mxCell>
        <mxCell id="c6qLf4H38Sc4OMnuLa_u-56" value="GO HOME" style="whiteSpace=wrap;html=1;" vertex="1" parent="WIyWlLk6GJQsqaUBKTNV-1">
          <mxGeometry x="600" y="1781.25" width="120" height="60" as="geometry" />
        </mxCell>
        <mxCell id="c6qLf4H38Sc4OMnuLa_u-59" value="END&amp;nbsp;" style="ellipse;whiteSpace=wrap;html=1;" vertex="1" parent="WIyWlLk6GJQsqaUBKTNV-1">
          <mxGeometry x="407" y="1920" width="106" height="60" as="geometry" />
        </mxCell>
        <mxCell id="c6qLf4H38Sc4OMnuLa_u-68" value="" style="edgeStyle=orthogonalEdgeStyle;curved=1;rounded=0;orthogonalLoop=1;jettySize=auto;html=1;exitX=0;exitY=0.5;exitDx=0;exitDy=0;" edge="1" parent="WIyWlLk6GJQsqaUBKTNV-1" source="c6qLf4H38Sc4OMnuLa_u-31" target="c6qLf4H38Sc4OMnuLa_u-51">
          <mxGeometry relative="1" as="geometry">
            <mxPoint x="893.3333333333334" y="210" as="targetPoint" />
            <mxPoint x="140" y="1811" as="sourcePoint" />
          </mxGeometry>
        </mxCell>
        <mxCell id="c6qLf4H38Sc4OMnuLa_u-51" value="SWAP" style="text;html=1;align=center;verticalAlign=middle;whiteSpace=wrap;rounded=0;" vertex="1" parent="WIyWlLk6GJQsqaUBKTNV-1">
          <mxGeometry x="-10" y="1796.25" width="60" height="30" as="geometry" />
        </mxCell>
        <mxCell id="c6qLf4H38Sc4OMnuLa_u-73" value="" style="edgeStyle=orthogonalEdgeStyle;curved=1;rounded=0;orthogonalLoop=1;jettySize=auto;html=1;" edge="1" parent="WIyWlLk6GJQsqaUBKTNV-1" source="c6qLf4H38Sc4OMnuLa_u-70" target="c6qLf4H38Sc4OMnuLa_u-74">
          <mxGeometry relative="1" as="geometry">
            <mxPoint x="1027" y="170" as="targetPoint" />
          </mxGeometry>
        </mxCell>
        <mxCell id="c6qLf4H38Sc4OMnuLa_u-70" value="START SWAP&amp;nbsp;&lt;div&gt;PROCESS&lt;/div&gt;" style="ellipse;whiteSpace=wrap;html=1;" vertex="1" parent="WIyWlLk6GJQsqaUBKTNV-1">
          <mxGeometry x="827" y="130" width="120" height="80" as="geometry" />
        </mxCell>
        <mxCell id="c6qLf4H38Sc4OMnuLa_u-76" value="" style="edgeStyle=orthogonalEdgeStyle;curved=1;rounded=0;orthogonalLoop=1;jettySize=auto;html=1;" edge="1" parent="WIyWlLk6GJQsqaUBKTNV-1" source="c6qLf4H38Sc4OMnuLa_u-74" target="c6qLf4H38Sc4OMnuLa_u-75">
          <mxGeometry relative="1" as="geometry" />
        </mxCell>
        <mxCell id="c6qLf4H38Sc4OMnuLa_u-84" style="edgeStyle=orthogonalEdgeStyle;rounded=0;orthogonalLoop=1;jettySize=auto;html=1;entryX=1;entryY=0.5;entryDx=0;entryDy=0;exitX=0.25;exitY=0;exitDx=0;exitDy=0;" edge="1" parent="WIyWlLk6GJQsqaUBKTNV-1" source="c6qLf4H38Sc4OMnuLa_u-81" target="c6qLf4H38Sc4OMnuLa_u-0">
          <mxGeometry relative="1" as="geometry">
            <mxPoint x="270" y="60" as="targetPoint" />
          </mxGeometry>
        </mxCell>
        <mxCell id="c6qLf4H38Sc4OMnuLa_u-88" style="edgeStyle=orthogonalEdgeStyle;curved=1;rounded=0;orthogonalLoop=1;jettySize=auto;html=1;" edge="1" parent="WIyWlLk6GJQsqaUBKTNV-1" source="c6qLf4H38Sc4OMnuLa_u-74" target="c6qLf4H38Sc4OMnuLa_u-81">
          <mxGeometry relative="1" as="geometry">
            <mxPoint x="1220" y="100" as="targetPoint" />
            <Array as="points">
              <mxPoint x="1310" y="170" />
              <mxPoint x="1310" y="100" />
              <mxPoint x="1210" y="100" />
            </Array>
          </mxGeometry>
        </mxCell>
        <mxCell id="c6qLf4H38Sc4OMnuLa_u-74" value="HAS USER&lt;div&gt;&amp;nbsp;CHECKED&amp;nbsp;&lt;div&gt;PHONE WORTH ?&lt;/div&gt;&lt;/div&gt;" style="rhombus;whiteSpace=wrap;html=1;" vertex="1" parent="WIyWlLk6GJQsqaUBKTNV-1">
          <mxGeometry x="1030" y="105.63" width="150" height="128.75" as="geometry" />
        </mxCell>
        <mxCell id="c6qLf4H38Sc4OMnuLa_u-90" value="" style="edgeStyle=orthogonalEdgeStyle;curved=1;rounded=0;orthogonalLoop=1;jettySize=auto;html=1;" edge="1" parent="WIyWlLk6GJQsqaUBKTNV-1" source="c6qLf4H38Sc4OMnuLa_u-75" target="c6qLf4H38Sc4OMnuLa_u-89">
          <mxGeometry relative="1" as="geometry" />
        </mxCell>
        <mxCell id="c6qLf4H38Sc4OMnuLa_u-75" value="SELECT PHONE USER WILL SWAP FOR&amp;nbsp;" style="whiteSpace=wrap;html=1;" vertex="1" parent="WIyWlLk6GJQsqaUBKTNV-1">
          <mxGeometry x="1045" y="359.995" width="120" height="60" as="geometry" />
        </mxCell>
        <mxCell id="c6qLf4H38Sc4OMnuLa_u-77" value="YES" style="text;html=1;align=center;verticalAlign=middle;whiteSpace=wrap;rounded=0;" vertex="1" parent="WIyWlLk6GJQsqaUBKTNV-1">
          <mxGeometry x="1090" y="280" width="60" height="30" as="geometry" />
        </mxCell>
        <mxCell id="c6qLf4H38Sc4OMnuLa_u-81" value="NO" style="text;html=1;align=center;verticalAlign=middle;whiteSpace=wrap;rounded=0;" vertex="1" parent="WIyWlLk6GJQsqaUBKTNV-1">
          <mxGeometry x="1170" y="40" width="60" height="30" as="geometry" />
        </mxCell>
        <mxCell id="c6qLf4H38Sc4OMnuLa_u-92" value="" style="edgeStyle=orthogonalEdgeStyle;curved=1;rounded=0;orthogonalLoop=1;jettySize=auto;html=1;" edge="1" parent="WIyWlLk6GJQsqaUBKTNV-1" source="c6qLf4H38Sc4OMnuLa_u-89">
          <mxGeometry relative="1" as="geometry">
            <mxPoint x="1105" y="639.9949999999999" as="targetPoint" />
          </mxGeometry>
        </mxCell>
        <mxCell id="c6qLf4H38Sc4OMnuLa_u-89" value="FETCH DATA FROM DB FOR SELECTED PHONE" style="whiteSpace=wrap;html=1;" vertex="1" parent="WIyWlLk6GJQsqaUBKTNV-1">
          <mxGeometry x="1045" y="499.995" width="120" height="60" as="geometry" />
        </mxCell>
        <mxCell id="c6qLf4H38Sc4OMnuLa_u-94" value="" style="edgeStyle=orthogonalEdgeStyle;curved=1;rounded=0;orthogonalLoop=1;jettySize=auto;html=1;" edge="1" parent="WIyWlLk6GJQsqaUBKTNV-1" target="c6qLf4H38Sc4OMnuLa_u-93">
          <mxGeometry relative="1" as="geometry">
            <mxPoint x="1105" y="699.9949999999999" as="sourcePoint" />
          </mxGeometry>
        </mxCell>
        <mxCell id="c6qLf4H38Sc4OMnuLa_u-96" value="" style="edgeStyle=orthogonalEdgeStyle;curved=1;rounded=0;orthogonalLoop=1;jettySize=auto;html=1;" edge="1" parent="WIyWlLk6GJQsqaUBKTNV-1" source="c6qLf4H38Sc4OMnuLa_u-93" target="c6qLf4H38Sc4OMnuLa_u-95">
          <mxGeometry relative="1" as="geometry" />
        </mxCell>
        <mxCell id="c6qLf4H38Sc4OMnuLa_u-93" value="PROCESS ELIGIBILITY" style="whiteSpace=wrap;html=1;" vertex="1" parent="WIyWlLk6GJQsqaUBKTNV-1">
          <mxGeometry x="1045" y="779.995" width="120" height="60" as="geometry" />
        </mxCell>
        <mxCell id="c6qLf4H38Sc4OMnuLa_u-98" value="" style="edgeStyle=orthogonalEdgeStyle;curved=1;rounded=0;orthogonalLoop=1;jettySize=auto;html=1;" edge="1" parent="WIyWlLk6GJQsqaUBKTNV-1" source="c6qLf4H38Sc4OMnuLa_u-95" target="c6qLf4H38Sc4OMnuLa_u-104">
          <mxGeometry relative="1" as="geometry">
            <mxPoint x="1105" y="1130" as="targetPoint" />
          </mxGeometry>
        </mxCell>
        <mxCell id="c6qLf4H38Sc4OMnuLa_u-100" value="" style="edgeStyle=orthogonalEdgeStyle;curved=1;rounded=0;orthogonalLoop=1;jettySize=auto;html=1;" edge="1" parent="WIyWlLk6GJQsqaUBKTNV-1" source="c6qLf4H38Sc4OMnuLa_u-95" target="c6qLf4H38Sc4OMnuLa_u-99">
          <mxGeometry relative="1" as="geometry" />
        </mxCell>
        <mxCell id="c6qLf4H38Sc4OMnuLa_u-95" value="IS USER ELIGIBLE FOR SWAP" style="rhombus;whiteSpace=wrap;html=1;" vertex="1" parent="WIyWlLk6GJQsqaUBKTNV-1">
          <mxGeometry x="1053.75" y="930" width="102.5" height="120" as="geometry" />
        </mxCell>
        <mxCell id="c6qLf4H38Sc4OMnuLa_u-99" value="UPDATE ACCOUNT&amp;nbsp;&lt;div&gt;TO TIER TWO&lt;/div&gt;" style="whiteSpace=wrap;html=1;" vertex="1" parent="WIyWlLk6GJQsqaUBKTNV-1">
          <mxGeometry x="1227.5" y="960" width="120" height="60" as="geometry" />
        </mxCell>
        <mxCell id="c6qLf4H38Sc4OMnuLa_u-101" value="NO" style="text;html=1;align=center;verticalAlign=middle;whiteSpace=wrap;rounded=0;" vertex="1" parent="WIyWlLk6GJQsqaUBKTNV-1">
          <mxGeometry x="1156.25" y="960" width="60" height="30" as="geometry" />
        </mxCell>
        <mxCell id="c6qLf4H38Sc4OMnuLa_u-102" value="YES" style="text;html=1;align=center;verticalAlign=middle;whiteSpace=wrap;rounded=0;" vertex="1" parent="WIyWlLk6GJQsqaUBKTNV-1">
          <mxGeometry x="1096.25" y="1070" width="60" height="30" as="geometry" />
        </mxCell>
        <mxCell id="c6qLf4H38Sc4OMnuLa_u-106" value="" style="edgeStyle=orthogonalEdgeStyle;curved=1;rounded=0;orthogonalLoop=1;jettySize=auto;html=1;" edge="1" parent="WIyWlLk6GJQsqaUBKTNV-1" source="c6qLf4H38Sc4OMnuLa_u-104" target="c6qLf4H38Sc4OMnuLa_u-107">
          <mxGeometry relative="1" as="geometry">
            <mxPoint x="1105" y="1320" as="targetPoint" />
          </mxGeometry>
        </mxCell>
        <mxCell id="c6qLf4H38Sc4OMnuLa_u-104" value="COLLECT PICKUP AND DELIVEERY LOCATION" style="shape=parallelogram;perimeter=parallelogramPerimeter;whiteSpace=wrap;html=1;fixedSize=1;" vertex="1" parent="WIyWlLk6GJQsqaUBKTNV-1">
          <mxGeometry x="1011.25" y="1150" width="187.5" height="80" as="geometry" />
        </mxCell>
        <mxCell id="c6qLf4H38Sc4OMnuLa_u-109" value="" style="edgeStyle=orthogonalEdgeStyle;curved=1;rounded=0;orthogonalLoop=1;jettySize=auto;html=1;" edge="1" parent="WIyWlLk6GJQsqaUBKTNV-1" source="c6qLf4H38Sc4OMnuLa_u-107" target="c6qLf4H38Sc4OMnuLa_u-108">
          <mxGeometry relative="1" as="geometry" />
        </mxCell>
        <mxCell id="c6qLf4H38Sc4OMnuLa_u-113" value="" style="edgeStyle=orthogonalEdgeStyle;curved=1;rounded=0;orthogonalLoop=1;jettySize=auto;html=1;" edge="1" parent="WIyWlLk6GJQsqaUBKTNV-1" source="c6qLf4H38Sc4OMnuLa_u-107" target="c6qLf4H38Sc4OMnuLa_u-112">
          <mxGeometry relative="1" as="geometry" />
        </mxCell>
        <mxCell id="c6qLf4H38Sc4OMnuLa_u-107" value="DOES USER&amp;nbsp;&lt;div&gt;AGREE TO TERMS AND CONDITIONS ?&lt;/div&gt;" style="rhombus;whiteSpace=wrap;html=1;" vertex="1" parent="WIyWlLk6GJQsqaUBKTNV-1">
          <mxGeometry x="1032.5" y="1320" width="145" height="140" as="geometry" />
        </mxCell>
        <mxCell id="c6qLf4H38Sc4OMnuLa_u-108" value="BACK TO INPUT COLLECTION" style="whiteSpace=wrap;html=1;" vertex="1" parent="WIyWlLk6GJQsqaUBKTNV-1">
          <mxGeometry x="1270" y="1360" width="120" height="60" as="geometry" />
        </mxCell>
        <mxCell id="c6qLf4H38Sc4OMnuLa_u-110" value="NO" style="text;html=1;align=center;verticalAlign=middle;resizable=0;points=[];autosize=1;strokeColor=none;fillColor=none;" vertex="1" parent="WIyWlLk6GJQsqaUBKTNV-1">
          <mxGeometry x="1198.75" y="1368" width="40" height="30" as="geometry" />
        </mxCell>
        <mxCell id="c6qLf4H38Sc4OMnuLa_u-111" style="edgeStyle=orthogonalEdgeStyle;curved=1;rounded=0;orthogonalLoop=1;jettySize=auto;html=1;entryX=0.961;entryY=0.374;entryDx=0;entryDy=0;entryPerimeter=0;" edge="1" parent="WIyWlLk6GJQsqaUBKTNV-1" source="c6qLf4H38Sc4OMnuLa_u-108" target="c6qLf4H38Sc4OMnuLa_u-104">
          <mxGeometry relative="1" as="geometry" />
        </mxCell>
        <mxCell id="c6qLf4H38Sc4OMnuLa_u-115" value="" style="edgeStyle=orthogonalEdgeStyle;curved=1;rounded=0;orthogonalLoop=1;jettySize=auto;html=1;" edge="1" parent="WIyWlLk6GJQsqaUBKTNV-1" source="c6qLf4H38Sc4OMnuLa_u-112" target="c6qLf4H38Sc4OMnuLa_u-116">
          <mxGeometry relative="1" as="geometry">
            <mxPoint x="1105" y="1720.0000000000005" as="targetPoint" />
          </mxGeometry>
        </mxCell>
        <mxCell id="c6qLf4H38Sc4OMnuLa_u-112" value="STORE SWAP REQUEST IN DB &amp;amp; NOTIFY ADMIN / BACKEND&amp;nbsp;" style="whiteSpace=wrap;html=1;" vertex="1" parent="WIyWlLk6GJQsqaUBKTNV-1">
          <mxGeometry x="1045" y="1580" width="120" height="60" as="geometry" />
        </mxCell>
        <mxCell id="c6qLf4H38Sc4OMnuLa_u-118" value="" style="edgeStyle=orthogonalEdgeStyle;curved=1;rounded=0;orthogonalLoop=1;jettySize=auto;html=1;" edge="1" parent="WIyWlLk6GJQsqaUBKTNV-1" source="c6qLf4H38Sc4OMnuLa_u-116" target="c6qLf4H38Sc4OMnuLa_u-117">
          <mxGeometry relative="1" as="geometry" />
        </mxCell>
        <mxCell id="c6qLf4H38Sc4OMnuLa_u-116" value="GENERATE SWAP REF ID" style="rounded=0;whiteSpace=wrap;html=1;" vertex="1" parent="WIyWlLk6GJQsqaUBKTNV-1">
          <mxGeometry x="1045" y="1940.0000000000005" width="120" height="60" as="geometry" />
        </mxCell>
        <mxCell id="c6qLf4H38Sc4OMnuLa_u-123" value="" style="edgeStyle=orthogonalEdgeStyle;curved=1;rounded=0;orthogonalLoop=1;jettySize=auto;html=1;" edge="1" parent="WIyWlLk6GJQsqaUBKTNV-1" source="c6qLf4H38Sc4OMnuLa_u-117" target="c6qLf4H38Sc4OMnuLa_u-122">
          <mxGeometry relative="1" as="geometry" />
        </mxCell>
        <mxCell id="c6qLf4H38Sc4OMnuLa_u-117" value="SHOW CONFIRMATION&amp;nbsp;&lt;div&gt;TO USER&lt;/div&gt;" style="shape=parallelogram;perimeter=parallelogramPerimeter;whiteSpace=wrap;html=1;fixedSize=1;rounded=0;" vertex="1" parent="WIyWlLk6GJQsqaUBKTNV-1">
          <mxGeometry x="1027.5" y="2060" width="155" height="80" as="geometry" />
        </mxCell>
        <mxCell id="c6qLf4H38Sc4OMnuLa_u-120" value="" style="edgeStyle=orthogonalEdgeStyle;curved=1;rounded=0;orthogonalLoop=1;jettySize=auto;html=1;" edge="1" parent="WIyWlLk6GJQsqaUBKTNV-1" source="c6qLf4H38Sc4OMnuLa_u-119" target="c6qLf4H38Sc4OMnuLa_u-116">
          <mxGeometry relative="1" as="geometry" />
        </mxCell>
        <mxCell id="c6qLf4H38Sc4OMnuLa_u-134" style="edgeStyle=orthogonalEdgeStyle;curved=1;rounded=0;orthogonalLoop=1;jettySize=auto;html=1;" edge="1" parent="WIyWlLk6GJQsqaUBKTNV-1" source="c6qLf4H38Sc4OMnuLa_u-119" target="c6qLf4H38Sc4OMnuLa_u-133">
          <mxGeometry relative="1" as="geometry" />
        </mxCell>
        <mxCell id="c6qLf4H38Sc4OMnuLa_u-119" value="IS SWAP REQUEST&amp;nbsp;&lt;div&gt;GRANTED ?&lt;/div&gt;" style="rhombus;whiteSpace=wrap;html=1;" vertex="1" parent="WIyWlLk6GJQsqaUBKTNV-1">
          <mxGeometry x="1047.5" y="1711.25" width="115" height="100" as="geometry" />
        </mxCell>
        <mxCell id="c6qLf4H38Sc4OMnuLa_u-121" value="YES" style="text;html=1;align=center;verticalAlign=middle;resizable=0;points=[];autosize=1;strokeColor=none;fillColor=none;" vertex="1" parent="WIyWlLk6GJQsqaUBKTNV-1">
          <mxGeometry x="1095" y="1811.25" width="50" height="30" as="geometry" />
        </mxCell>
        <mxCell id="c6qLf4H38Sc4OMnuLa_u-125" value="" style="edgeStyle=orthogonalEdgeStyle;curved=1;rounded=0;orthogonalLoop=1;jettySize=auto;html=1;" edge="1" parent="WIyWlLk6GJQsqaUBKTNV-1" source="c6qLf4H38Sc4OMnuLa_u-122" target="c6qLf4H38Sc4OMnuLa_u-124">
          <mxGeometry relative="1" as="geometry" />
        </mxCell>
        <mxCell id="c6qLf4H38Sc4OMnuLa_u-128" value="" style="edgeStyle=orthogonalEdgeStyle;curved=1;rounded=0;orthogonalLoop=1;jettySize=auto;html=1;" edge="1" parent="WIyWlLk6GJQsqaUBKTNV-1" source="c6qLf4H38Sc4OMnuLa_u-122" target="c6qLf4H38Sc4OMnuLa_u-127">
          <mxGeometry relative="1" as="geometry" />
        </mxCell>
        <mxCell id="c6qLf4H38Sc4OMnuLa_u-122" value="DOWNLOAD SUMMARY / RETURN HOME&amp;nbsp;" style="rhombus;whiteSpace=wrap;html=1;rounded=0;" vertex="1" parent="WIyWlLk6GJQsqaUBKTNV-1">
          <mxGeometry x="1027.5" y="2250" width="155" height="150" as="geometry" />
        </mxCell>
        <mxCell id="c6qLf4H38Sc4OMnuLa_u-124" value="RETURN HOME TERMINATOR" style="rounded=0;whiteSpace=wrap;html=1;" vertex="1" parent="WIyWlLk6GJQsqaUBKTNV-1">
          <mxGeometry x="1280" y="2295" width="120" height="60" as="geometry" />
        </mxCell>
        <mxCell id="c6qLf4H38Sc4OMnuLa_u-126" value="RETURN" style="text;html=1;align=center;verticalAlign=middle;resizable=0;points=[];autosize=1;strokeColor=none;fillColor=none;" vertex="1" parent="WIyWlLk6GJQsqaUBKTNV-1">
          <mxGeometry x="1195" y="2298" width="70" height="30" as="geometry" />
        </mxCell>
        <mxCell id="c6qLf4H38Sc4OMnuLa_u-132" value="" style="edgeStyle=orthogonalEdgeStyle;curved=1;rounded=0;orthogonalLoop=1;jettySize=auto;html=1;" edge="1" parent="WIyWlLk6GJQsqaUBKTNV-1" source="c6qLf4H38Sc4OMnuLa_u-127" target="c6qLf4H38Sc4OMnuLa_u-131">
          <mxGeometry relative="1" as="geometry" />
        </mxCell>
        <mxCell id="c6qLf4H38Sc4OMnuLa_u-127" value="TRIGGER DOWNLOAD SCREENSHOT OR PDF" style="rounded=0;whiteSpace=wrap;html=1;" vertex="1" parent="WIyWlLk6GJQsqaUBKTNV-1">
          <mxGeometry x="1045" y="2525" width="120" height="60" as="geometry" />
        </mxCell>
        <mxCell id="c6qLf4H38Sc4OMnuLa_u-130" value="DOWNLOAD" style="text;html=1;align=center;verticalAlign=middle;resizable=0;points=[];autosize=1;strokeColor=none;fillColor=none;" vertex="1" parent="WIyWlLk6GJQsqaUBKTNV-1">
          <mxGeometry x="1065" y="2438" width="90" height="30" as="geometry" />
        </mxCell>
        <mxCell id="c6qLf4H38Sc4OMnuLa_u-131" value="END OF SWAP&lt;div&gt;FLOW&lt;/div&gt;" style="ellipse;whiteSpace=wrap;html=1;" vertex="1" parent="WIyWlLk6GJQsqaUBKTNV-1">
          <mxGeometry x="1045" y="2680" width="120" height="80" as="geometry" />
        </mxCell>
        <mxCell id="c6qLf4H38Sc4OMnuLa_u-133" value="END OF SWAP&lt;div&gt;SESSION&lt;/div&gt;" style="ellipse;whiteSpace=wrap;html=1;" vertex="1" parent="WIyWlLk6GJQsqaUBKTNV-1">
          <mxGeometry x="1310" y="1721.25" width="120" height="80" as="geometry" />
        </mxCell>
        <mxCell id="c6qLf4H38Sc4OMnuLa_u-135" value="&lt;h1 style=&quot;margin-top: 0px;&quot;&gt;&lt;span style=&quot;background-color: transparent; color: light-dark(rgb(0, 0, 0), rgb(255, 255, 255));&quot;&gt;Phone calculator flow&lt;/span&gt;&lt;/h1&gt;&lt;h1 style=&quot;margin-top: 0px;&quot;&gt;&lt;br&gt;&lt;/h1&gt;" style="text;html=1;whiteSpace=wrap;overflow=hidden;rounded=0;" vertex="1" parent="WIyWlLk6GJQsqaUBKTNV-1">
          <mxGeometry x="135" y="-60" width="180" height="120" as="geometry" />
        </mxCell>
        <mxCell id="c6qLf4H38Sc4OMnuLa_u-136" value="&lt;h1 style=&quot;margin-top: 0px;&quot;&gt;swapping flow&amp;nbsp;&lt;/h1&gt;" style="text;html=1;whiteSpace=wrap;overflow=hidden;rounded=0;" vertex="1" parent="WIyWlLk6GJQsqaUBKTNV-1">
          <mxGeometry x="797" y="60" width="180" height="120" as="geometry" />
        </mxCell>
        <mxCell id="c6qLf4H38Sc4OMnuLa_u-139" value="SHOW RES TO USER" style="shape=parallelogram;perimeter=parallelogramPerimeter;whiteSpace=wrap;html=1;fixedSize=1;" vertex="1" parent="WIyWlLk6GJQsqaUBKTNV-1">
          <mxGeometry x="140" y="1600.0000000000005" width="120" height="60" as="geometry" />
        </mxCell>
        <mxCell id="c6qLf4H38Sc4OMnuLa_u-140" value="DISPLAY SWAP&amp;nbsp;&lt;div&gt;REQUIREMENTS AND COMPARISON&lt;/div&gt;" style="shape=parallelogram;perimeter=parallelogramPerimeter;whiteSpace=wrap;html=1;fixedSize=1;" vertex="1" parent="WIyWlLk6GJQsqaUBKTNV-1">
          <mxGeometry x="1017.5" y="610" width="165" height="90" as="geometry" />
        </mxCell>
        <mxCell id="c6qLf4H38Sc4OMnuLa_u-141" value="YES" style="text;html=1;align=center;verticalAlign=middle;resizable=0;points=[];autosize=1;strokeColor=none;fillColor=none;" vertex="1" parent="WIyWlLk6GJQsqaUBKTNV-1">
          <mxGeometry x="1100" y="1502.5" width="50" height="30" as="geometry" />
        </mxCell>
        <mxCell id="c6qLf4H38Sc4OMnuLa_u-142" value="NO" style="text;html=1;align=center;verticalAlign=middle;resizable=0;points=[];autosize=1;strokeColor=none;fillColor=none;" vertex="1" parent="WIyWlLk6GJQsqaUBKTNV-1">
          <mxGeometry x="1210" y="1730" width="40" height="30" as="geometry" />
        </mxCell>
        <mxCell id="c6qLf4H38Sc4OMnuLa_u-145" value="SEND CONFIRMATION MAIL" style="rounded=0;whiteSpace=wrap;html=1;" vertex="1" parent="WIyWlLk6GJQsqaUBKTNV-1">
          <mxGeometry x="1045" y="1850" width="120" height="60" as="geometry" />
        </mxCell>
        <mxCell id="c6qLf4H38Sc4OMnuLa_u-149" value="" style="edgeStyle=orthogonalEdgeStyle;curved=1;rounded=0;orthogonalLoop=1;jettySize=auto;html=1;" edge="1" parent="WIyWlLk6GJQsqaUBKTNV-1" source="c6qLf4H38Sc4OMnuLa_u-146" target="c6qLf4H38Sc4OMnuLa_u-148">
          <mxGeometry relative="1" as="geometry" />
        </mxCell>
        <mxCell id="c6qLf4H38Sc4OMnuLa_u-146" value="START" style="ellipse;whiteSpace=wrap;html=1;" vertex="1" parent="WIyWlLk6GJQsqaUBKTNV-1">
          <mxGeometry x="1654" y="60" width="120" height="80" as="geometry" />
        </mxCell>
        <mxCell id="c6qLf4H38Sc4OMnuLa_u-147" value="&lt;h1 style=&quot;margin-top: 0px;&quot;&gt;Buy Device flow&amp;nbsp;&lt;/h1&gt;" style="text;html=1;whiteSpace=wrap;overflow=hidden;rounded=0;" vertex="1" parent="WIyWlLk6GJQsqaUBKTNV-1">
          <mxGeometry x="1624" y="-30" width="180" height="120" as="geometry" />
        </mxCell>
        <mxCell id="c6qLf4H38Sc4OMnuLa_u-151" value="" style="edgeStyle=orthogonalEdgeStyle;curved=1;rounded=0;orthogonalLoop=1;jettySize=auto;html=1;" edge="1" parent="WIyWlLk6GJQsqaUBKTNV-1" source="c6qLf4H38Sc4OMnuLa_u-148" target="c6qLf4H38Sc4OMnuLa_u-150">
          <mxGeometry relative="1" as="geometry" />
        </mxCell>
        <mxCell id="c6qLf4H38Sc4OMnuLa_u-148" value="SELECT PHONE&amp;nbsp;&lt;div&gt;TYPE&lt;/div&gt;" style="whiteSpace=wrap;html=1;" vertex="1" parent="WIyWlLk6GJQsqaUBKTNV-1">
          <mxGeometry x="1654" y="230" width="120" height="60" as="geometry" />
        </mxCell>
        <mxCell id="c6qLf4H38Sc4OMnuLa_u-153" value="" style="edgeStyle=orthogonalEdgeStyle;curved=1;rounded=0;orthogonalLoop=1;jettySize=auto;html=1;" edge="1" parent="WIyWlLk6GJQsqaUBKTNV-1" source="c6qLf4H38Sc4OMnuLa_u-150" target="c6qLf4H38Sc4OMnuLa_u-152">
          <mxGeometry relative="1" as="geometry" />
        </mxCell>
        <mxCell id="c6qLf4H38Sc4OMnuLa_u-150" value="FETCH PHONE&amp;nbsp;&lt;div&gt;DATA FRM DB&lt;/div&gt;" style="whiteSpace=wrap;html=1;" vertex="1" parent="WIyWlLk6GJQsqaUBKTNV-1">
          <mxGeometry x="1654" y="370" width="120" height="60" as="geometry" />
        </mxCell>
        <mxCell id="c6qLf4H38Sc4OMnuLa_u-155" value="" style="edgeStyle=orthogonalEdgeStyle;curved=1;rounded=0;orthogonalLoop=1;jettySize=auto;html=1;" edge="1" parent="WIyWlLk6GJQsqaUBKTNV-1" source="c6qLf4H38Sc4OMnuLa_u-152" target="c6qLf4H38Sc4OMnuLa_u-154">
          <mxGeometry relative="1" as="geometry" />
        </mxCell>
        <mxCell id="c6qLf4H38Sc4OMnuLa_u-152" value="ADD/REMOVE FRM&lt;div&gt;CART&lt;/div&gt;" style="whiteSpace=wrap;html=1;" vertex="1" parent="WIyWlLk6GJQsqaUBKTNV-1">
          <mxGeometry x="1654" y="510" width="120" height="60" as="geometry" />
        </mxCell>
        <mxCell id="c6qLf4H38Sc4OMnuLa_u-157" value="" style="edgeStyle=orthogonalEdgeStyle;curved=1;rounded=0;orthogonalLoop=1;jettySize=auto;html=1;" edge="1" parent="WIyWlLk6GJQsqaUBKTNV-1" source="c6qLf4H38Sc4OMnuLa_u-154" target="c6qLf4H38Sc4OMnuLa_u-156">
          <mxGeometry relative="1" as="geometry" />
        </mxCell>
        <mxCell id="c6qLf4H38Sc4OMnuLa_u-154" value="CONFIRM&amp;nbsp;&lt;div&gt;SELECTIONS&lt;/div&gt;" style="whiteSpace=wrap;html=1;" vertex="1" parent="WIyWlLk6GJQsqaUBKTNV-1">
          <mxGeometry x="1654" y="650" width="120" height="60" as="geometry" />
        </mxCell>
        <mxCell id="c6qLf4H38Sc4OMnuLa_u-159" value="" style="edgeStyle=orthogonalEdgeStyle;curved=1;rounded=0;orthogonalLoop=1;jettySize=auto;html=1;" edge="1" parent="WIyWlLk6GJQsqaUBKTNV-1" source="c6qLf4H38Sc4OMnuLa_u-156" target="c6qLf4H38Sc4OMnuLa_u-158">
          <mxGeometry relative="1" as="geometry" />
        </mxCell>
        <mxCell id="c6qLf4H38Sc4OMnuLa_u-156" value="CHOOSE DELIVERY&lt;div&gt;LOCATION OR PICK-UP&lt;/div&gt;" style="whiteSpace=wrap;html=1;" vertex="1" parent="WIyWlLk6GJQsqaUBKTNV-1">
          <mxGeometry x="1636" y="800" width="156" height="60" as="geometry" />
        </mxCell>
        <mxCell id="c6qLf4H38Sc4OMnuLa_u-168" value="" style="edgeStyle=orthogonalEdgeStyle;curved=1;rounded=0;orthogonalLoop=1;jettySize=auto;html=1;" edge="1" parent="WIyWlLk6GJQsqaUBKTNV-1" source="c6qLf4H38Sc4OMnuLa_u-158" target="c6qLf4H38Sc4OMnuLa_u-167">
          <mxGeometry relative="1" as="geometry" />
        </mxCell>
        <mxCell id="c6qLf4H38Sc4OMnuLa_u-158" value="IS USER&lt;div&gt;LOGGED IN&lt;/div&gt;" style="rhombus;whiteSpace=wrap;html=1;" vertex="1" parent="WIyWlLk6GJQsqaUBKTNV-1">
          <mxGeometry x="1646" y="940" width="136" height="100" as="geometry" />
        </mxCell>
        <mxCell id="c6qLf4H38Sc4OMnuLa_u-160" value="" style="endArrow=classic;html=1;rounded=0;curved=1;" edge="1" parent="WIyWlLk6GJQsqaUBKTNV-1">
          <mxGeometry relative="1" as="geometry">
            <mxPoint x="1782" y="989.39" as="sourcePoint" />
            <mxPoint x="1942" y="989.39" as="targetPoint" />
          </mxGeometry>
        </mxCell>
        <mxCell id="c6qLf4H38Sc4OMnuLa_u-161" value="NO" style="edgeLabel;resizable=0;html=1;;align=center;verticalAlign=middle;" connectable="0" vertex="1" parent="c6qLf4H38Sc4OMnuLa_u-160">
          <mxGeometry relative="1" as="geometry" />
        </mxCell>
        <mxCell id="c6qLf4H38Sc4OMnuLa_u-162" value="Source" style="edgeLabel;resizable=0;html=1;;align=left;verticalAlign=bottom;" connectable="0" vertex="1" parent="c6qLf4H38Sc4OMnuLa_u-160">
          <mxGeometry x="-1" relative="1" as="geometry" />
        </mxCell>
        <mxCell id="c6qLf4H38Sc4OMnuLa_u-164" style="edgeStyle=orthogonalEdgeStyle;curved=1;rounded=0;orthogonalLoop=1;jettySize=auto;html=1;exitX=0.5;exitY=0;exitDx=0;exitDy=0;entryX=0.5;entryY=1;entryDx=0;entryDy=0;" edge="1" parent="WIyWlLk6GJQsqaUBKTNV-1" source="c6qLf4H38Sc4OMnuLa_u-165" target="c6qLf4H38Sc4OMnuLa_u-156">
          <mxGeometry relative="1" as="geometry">
            <mxPoint x="1720" y="870" as="targetPoint" />
          </mxGeometry>
        </mxCell>
        <mxCell id="c6qLf4H38Sc4OMnuLa_u-166" value="" style="edgeStyle=orthogonalEdgeStyle;curved=1;rounded=0;orthogonalLoop=1;jettySize=auto;html=1;" edge="1" parent="WIyWlLk6GJQsqaUBKTNV-1" source="c6qLf4H38Sc4OMnuLa_u-163" target="c6qLf4H38Sc4OMnuLa_u-165">
          <mxGeometry relative="1" as="geometry" />
        </mxCell>
        <mxCell id="c6qLf4H38Sc4OMnuLa_u-163" value="ROUTE TO LOGIN/REGISTER" style="rounded=1;whiteSpace=wrap;html=1;" vertex="1" parent="WIyWlLk6GJQsqaUBKTNV-1">
          <mxGeometry x="1900" y="960" width="120" height="60" as="geometry" />
        </mxCell>
        <mxCell id="c6qLf4H38Sc4OMnuLa_u-165" value="LOGIN&amp;nbsp;" style="rounded=1;whiteSpace=wrap;html=1;" vertex="1" parent="WIyWlLk6GJQsqaUBKTNV-1">
          <mxGeometry x="2100" y="960" width="120" height="60" as="geometry" />
        </mxCell>
        <mxCell id="c6qLf4H38Sc4OMnuLa_u-171" value="" style="edgeStyle=orthogonalEdgeStyle;curved=1;rounded=0;orthogonalLoop=1;jettySize=auto;html=1;" edge="1" parent="WIyWlLk6GJQsqaUBKTNV-1" source="c6qLf4H38Sc4OMnuLa_u-167" target="c6qLf4H38Sc4OMnuLa_u-170">
          <mxGeometry relative="1" as="geometry" />
        </mxCell>
        <mxCell id="c6qLf4H38Sc4OMnuLa_u-167" value="VIEW SUMMARY (ITEMS, DELIVERY/PICKUP INFO)" style="whiteSpace=wrap;html=1;" vertex="1" parent="WIyWlLk6GJQsqaUBKTNV-1">
          <mxGeometry x="1606" y="1160" width="216" height="60" as="geometry" />
        </mxCell>
        <mxCell id="c6qLf4H38Sc4OMnuLa_u-169" value="YES" style="text;html=1;align=center;verticalAlign=middle;whiteSpace=wrap;rounded=0;" vertex="1" parent="WIyWlLk6GJQsqaUBKTNV-1">
          <mxGeometry x="1700" y="1070" width="60" height="30" as="geometry" />
        </mxCell>
        <mxCell id="c6qLf4H38Sc4OMnuLa_u-173" value="" style="edgeStyle=orthogonalEdgeStyle;curved=1;rounded=0;orthogonalLoop=1;jettySize=auto;html=1;" edge="1" parent="WIyWlLk6GJQsqaUBKTNV-1" source="c6qLf4H38Sc4OMnuLa_u-170" target="c6qLf4H38Sc4OMnuLa_u-172">
          <mxGeometry relative="1" as="geometry" />
        </mxCell>
        <mxCell id="c6qLf4H38Sc4OMnuLa_u-170" value="PROCEED TO CHECKOUT AND PAYMENT&amp;nbsp;" style="whiteSpace=wrap;html=1;" vertex="1" parent="WIyWlLk6GJQsqaUBKTNV-1">
          <mxGeometry x="1606" y="1300" width="216" height="60" as="geometry" />
        </mxCell>
        <mxCell id="c6qLf4H38Sc4OMnuLa_u-175" value="" style="edgeStyle=orthogonalEdgeStyle;curved=1;rounded=0;orthogonalLoop=1;jettySize=auto;html=1;" edge="1" parent="WIyWlLk6GJQsqaUBKTNV-1" source="c6qLf4H38Sc4OMnuLa_u-172" target="c6qLf4H38Sc4OMnuLa_u-174">
          <mxGeometry relative="1" as="geometry" />
        </mxCell>
        <mxCell id="c6qLf4H38Sc4OMnuLa_u-191" value="" style="edgeStyle=orthogonalEdgeStyle;curved=1;rounded=0;orthogonalLoop=1;jettySize=auto;html=1;" edge="1" parent="WIyWlLk6GJQsqaUBKTNV-1" source="c6qLf4H38Sc4OMnuLa_u-172">
          <mxGeometry relative="1" as="geometry">
            <mxPoint x="1714" y="1652.5" as="targetPoint" />
          </mxGeometry>
        </mxCell>
        <mxCell id="c6qLf4H38Sc4OMnuLa_u-172" value="DELIVERY / PICK-UP" style="rhombus;whiteSpace=wrap;html=1;" vertex="1" parent="WIyWlLk6GJQsqaUBKTNV-1">
          <mxGeometry x="1646" y="1452.5" width="136" height="100" as="geometry" />
        </mxCell>
        <mxCell id="c6qLf4H38Sc4OMnuLa_u-180" value="" style="edgeStyle=orthogonalEdgeStyle;curved=1;rounded=0;orthogonalLoop=1;jettySize=auto;html=1;" edge="1" parent="WIyWlLk6GJQsqaUBKTNV-1" source="c6qLf4H38Sc4OMnuLa_u-174" target="c6qLf4H38Sc4OMnuLa_u-179">
          <mxGeometry relative="1" as="geometry" />
        </mxCell>
        <mxCell id="c6qLf4H38Sc4OMnuLa_u-174" value="MANDATORY PAYSTACK PAYMRNT&amp;nbsp;" style="rounded=1;whiteSpace=wrap;html=1;" vertex="1" parent="WIyWlLk6GJQsqaUBKTNV-1">
          <mxGeometry x="2260" y="1472.5" width="190" height="60" as="geometry" />
        </mxCell>
        <mxCell id="c6qLf4H38Sc4OMnuLa_u-176" value="DELIVERY" style="text;html=1;align=center;verticalAlign=middle;whiteSpace=wrap;rounded=0;" vertex="1" parent="WIyWlLk6GJQsqaUBKTNV-1">
          <mxGeometry x="1995" y="1472.5" width="60" height="30" as="geometry" />
        </mxCell>
        <mxCell id="c6qLf4H38Sc4OMnuLa_u-187" value="" style="edgeStyle=orthogonalEdgeStyle;curved=1;rounded=0;orthogonalLoop=1;jettySize=auto;html=1;" edge="1" parent="WIyWlLk6GJQsqaUBKTNV-1" source="c6qLf4H38Sc4OMnuLa_u-179">
          <mxGeometry relative="1" as="geometry">
            <mxPoint x="2355" y="1826.25" as="targetPoint" />
          </mxGeometry>
        </mxCell>
        <mxCell id="c6qLf4H38Sc4OMnuLa_u-219" value="" style="edgeStyle=orthogonalEdgeStyle;rounded=0;orthogonalLoop=1;jettySize=auto;html=1;" edge="1" parent="WIyWlLk6GJQsqaUBKTNV-1" source="c6qLf4H38Sc4OMnuLa_u-179" target="c6qLf4H38Sc4OMnuLa_u-218">
          <mxGeometry relative="1" as="geometry" />
        </mxCell>
        <mxCell id="c6qLf4H38Sc4OMnuLa_u-179" value="STATUS" style="rhombus;whiteSpace=wrap;html=1;rounded=1;" vertex="1" parent="WIyWlLk6GJQsqaUBKTNV-1">
          <mxGeometry x="2287.5" y="1608.75" width="135" height="112.5" as="geometry" />
        </mxCell>
        <mxCell id="c6qLf4H38Sc4OMnuLa_u-189" value="" style="edgeStyle=orthogonalEdgeStyle;curved=1;rounded=0;orthogonalLoop=1;jettySize=auto;html=1;" edge="1" parent="WIyWlLk6GJQsqaUBKTNV-1" source="c6qLf4H38Sc4OMnuLa_u-181" target="c6qLf4H38Sc4OMnuLa_u-185">
          <mxGeometry relative="1" as="geometry" />
        </mxCell>
        <mxCell id="c6qLf4H38Sc4OMnuLa_u-181" value="PRINT SUMMARY (LABEL: PAID)" style="whiteSpace=wrap;html=1;rounded=1;" vertex="1" parent="WIyWlLk6GJQsqaUBKTNV-1">
          <mxGeometry x="2295" y="1990" width="120" height="60" as="geometry" />
        </mxCell>
        <mxCell id="c6qLf4H38Sc4OMnuLa_u-185" value="END" style="ellipse;whiteSpace=wrap;html=1;" vertex="1" parent="WIyWlLk6GJQsqaUBKTNV-1">
          <mxGeometry x="2292.5" y="2120" width="125" height="70" as="geometry" />
        </mxCell>
        <mxCell id="c6qLf4H38Sc4OMnuLa_u-188" value="" style="edgeStyle=orthogonalEdgeStyle;curved=1;rounded=0;orthogonalLoop=1;jettySize=auto;html=1;" edge="1" parent="WIyWlLk6GJQsqaUBKTNV-1" target="c6qLf4H38Sc4OMnuLa_u-181">
          <mxGeometry relative="1" as="geometry">
            <mxPoint x="2355" y="1886.25" as="sourcePoint" />
          </mxGeometry>
        </mxCell>
        <mxCell id="c6qLf4H38Sc4OMnuLa_u-186" value="SEND ORDER CONFIRMATION MAIL , GENERATE ORDER REFERENCE AND SUMMARY LINK" style="rounded=1;whiteSpace=wrap;html=1;" vertex="1" parent="WIyWlLk6GJQsqaUBKTNV-1">
          <mxGeometry x="2232.5" y="1826.25" width="245" height="60" as="geometry" />
        </mxCell>
        <mxCell id="c6qLf4H38Sc4OMnuLa_u-192" value="PICK UP" style="text;html=1;align=center;verticalAlign=middle;resizable=0;points=[];autosize=1;strokeColor=none;fillColor=none;" vertex="1" parent="WIyWlLk6GJQsqaUBKTNV-1">
          <mxGeometry x="1712" y="1578.75" width="70" height="30" as="geometry" />
        </mxCell>
        <mxCell id="c6qLf4H38Sc4OMnuLa_u-196" value="" style="edgeStyle=orthogonalEdgeStyle;curved=1;rounded=0;orthogonalLoop=1;jettySize=auto;html=1;" edge="1" parent="WIyWlLk6GJQsqaUBKTNV-1" source="c6qLf4H38Sc4OMnuLa_u-194" target="c6qLf4H38Sc4OMnuLa_u-195">
          <mxGeometry relative="1" as="geometry" />
        </mxCell>
        <mxCell id="c6qLf4H38Sc4OMnuLa_u-213" value="" style="edgeStyle=none;rounded=0;orthogonalLoop=1;jettySize=auto;html=1;exitX=0.5;exitY=1;exitDx=0;exitDy=0;" edge="1" parent="WIyWlLk6GJQsqaUBKTNV-1" source="c6qLf4H38Sc4OMnuLa_u-194">
          <mxGeometry relative="1" as="geometry">
            <mxPoint x="1713.63" y="1776.25" as="sourcePoint" />
            <mxPoint x="1713.63" y="1886.25" as="targetPoint" />
          </mxGeometry>
        </mxCell>
        <mxCell id="c6qLf4H38Sc4OMnuLa_u-194" value="CHOOSE PAYMENT METHOD" style="rhombus;whiteSpace=wrap;html=1;" vertex="1" parent="WIyWlLk6GJQsqaUBKTNV-1">
          <mxGeometry x="1641" y="1650" width="146" height="120" as="geometry" />
        </mxCell>
        <mxCell id="c6qLf4H38Sc4OMnuLa_u-199" value="" style="edgeStyle=orthogonalEdgeStyle;curved=1;rounded=0;orthogonalLoop=1;jettySize=auto;html=1;" edge="1" parent="WIyWlLk6GJQsqaUBKTNV-1" source="c6qLf4H38Sc4OMnuLa_u-195" target="c6qLf4H38Sc4OMnuLa_u-198">
          <mxGeometry relative="1" as="geometry" />
        </mxCell>
        <mxCell id="c6qLf4H38Sc4OMnuLa_u-195" value="SAVE TO DB /ADMIN NOTIFIED&amp;nbsp;" style="whiteSpace=wrap;html=1;" vertex="1" parent="WIyWlLk6GJQsqaUBKTNV-1">
          <mxGeometry x="1880" y="1680" width="120" height="60" as="geometry" />
        </mxCell>
        <mxCell id="c6qLf4H38Sc4OMnuLa_u-197" value="CASH" style="text;html=1;align=center;verticalAlign=middle;resizable=0;points=[];autosize=1;strokeColor=none;fillColor=none;" vertex="1" parent="WIyWlLk6GJQsqaUBKTNV-1">
          <mxGeometry x="1790" y="1668" width="60" height="30" as="geometry" />
        </mxCell>
        <mxCell id="c6qLf4H38Sc4OMnuLa_u-201" value="" style="edgeStyle=orthogonalEdgeStyle;curved=1;rounded=0;orthogonalLoop=1;jettySize=auto;html=1;" edge="1" parent="WIyWlLk6GJQsqaUBKTNV-1" source="c6qLf4H38Sc4OMnuLa_u-198" target="c6qLf4H38Sc4OMnuLa_u-200">
          <mxGeometry relative="1" as="geometry" />
        </mxCell>
        <mxCell id="c6qLf4H38Sc4OMnuLa_u-198" value="ADMIN SENDS PICKUP SCHEDULE WITHIN 24 HRS&amp;nbsp;" style="whiteSpace=wrap;html=1;" vertex="1" parent="WIyWlLk6GJQsqaUBKTNV-1">
          <mxGeometry x="1850" y="1826.25" width="180" height="60" as="geometry" />
        </mxCell>
        <mxCell id="c6qLf4H38Sc4OMnuLa_u-203" value="" style="edgeStyle=orthogonalEdgeStyle;curved=1;rounded=0;orthogonalLoop=1;jettySize=auto;html=1;" edge="1" parent="WIyWlLk6GJQsqaUBKTNV-1" source="c6qLf4H38Sc4OMnuLa_u-200" target="c6qLf4H38Sc4OMnuLa_u-202">
          <mxGeometry relative="1" as="geometry" />
        </mxCell>
        <mxCell id="c6qLf4H38Sc4OMnuLa_u-200" value="PRINT SUMMARY (LABEL: NOT PAID)" style="whiteSpace=wrap;html=1;" vertex="1" parent="WIyWlLk6GJQsqaUBKTNV-1">
          <mxGeometry x="1850" y="1966.25" width="180" height="60" as="geometry" />
        </mxCell>
        <mxCell id="c6qLf4H38Sc4OMnuLa_u-202" value="END&amp;nbsp;" style="ellipse;whiteSpace=wrap;html=1;" vertex="1" parent="WIyWlLk6GJQsqaUBKTNV-1">
          <mxGeometry x="1880" y="2115" width="120" height="80" as="geometry" />
        </mxCell>
        <mxCell id="c6qLf4H38Sc4OMnuLa_u-217" style="edgeStyle=orthogonalEdgeStyle;rounded=0;orthogonalLoop=1;jettySize=auto;html=1;entryX=0;entryY=0.5;entryDx=0;entryDy=0;" edge="1" parent="WIyWlLk6GJQsqaUBKTNV-1" source="c6qLf4H38Sc4OMnuLa_u-212" target="c6qLf4H38Sc4OMnuLa_u-179">
          <mxGeometry relative="1" as="geometry">
            <Array as="points">
              <mxPoint x="2100" y="1910" />
              <mxPoint x="2100" y="1665" />
            </Array>
          </mxGeometry>
        </mxCell>
        <mxCell id="c6qLf4H38Sc4OMnuLa_u-212" value="PAYSTACK" style="whiteSpace=wrap;html=1;" vertex="1" parent="WIyWlLk6GJQsqaUBKTNV-1">
          <mxGeometry x="1654" y="1880" width="120" height="60" as="geometry" />
        </mxCell>
        <mxCell id="c6qLf4H38Sc4OMnuLa_u-215" value="ONLINE" style="text;html=1;align=center;verticalAlign=middle;resizable=0;points=[];autosize=1;strokeColor=none;fillColor=none;" vertex="1" parent="WIyWlLk6GJQsqaUBKTNV-1">
          <mxGeometry x="1712" y="1806.25" width="70" height="30" as="geometry" />
        </mxCell>
        <mxCell id="c6qLf4H38Sc4OMnuLa_u-224" value="" style="edgeStyle=orthogonalEdgeStyle;rounded=0;orthogonalLoop=1;jettySize=auto;html=1;" edge="1" parent="WIyWlLk6GJQsqaUBKTNV-1" source="c6qLf4H38Sc4OMnuLa_u-218" target="c6qLf4H38Sc4OMnuLa_u-222">
          <mxGeometry relative="1" as="geometry" />
        </mxCell>
        <mxCell id="c6qLf4H38Sc4OMnuLa_u-218" value="SHOW ERROR SCREEN OR MODAL" style="whiteSpace=wrap;html=1;rounded=1;" vertex="1" parent="WIyWlLk6GJQsqaUBKTNV-1">
          <mxGeometry x="2610" y="1635" width="160" height="60" as="geometry" />
        </mxCell>
        <mxCell id="c6qLf4H38Sc4OMnuLa_u-220" value="SUCCESS" style="text;html=1;align=center;verticalAlign=middle;resizable=0;points=[];autosize=1;strokeColor=none;fillColor=none;" vertex="1" parent="WIyWlLk6GJQsqaUBKTNV-1">
          <mxGeometry x="2360" y="1750" width="80" height="30" as="geometry" />
        </mxCell>
        <mxCell id="c6qLf4H38Sc4OMnuLa_u-221" value="FAILED" style="text;html=1;align=center;verticalAlign=middle;resizable=0;points=[];autosize=1;strokeColor=none;fillColor=none;" vertex="1" parent="WIyWlLk6GJQsqaUBKTNV-1">
          <mxGeometry x="2460" y="1638" width="60" height="30" as="geometry" />
        </mxCell>
        <mxCell id="c6qLf4H38Sc4OMnuLa_u-227" style="edgeStyle=orthogonalEdgeStyle;curved=1;rounded=0;orthogonalLoop=1;jettySize=auto;html=1;" edge="1" parent="WIyWlLk6GJQsqaUBKTNV-1">
          <mxGeometry relative="1" as="geometry">
            <mxPoint x="2940" y="1630" as="sourcePoint" />
            <mxPoint x="1822" y="1190" as="targetPoint" />
            <Array as="points">
              <mxPoint x="2940" y="1580" />
              <mxPoint x="2768" y="1580" />
              <mxPoint x="2768" y="1230" />
              <mxPoint x="1822" y="1230" />
            </Array>
          </mxGeometry>
        </mxCell>
        <mxCell id="c6qLf4H38Sc4OMnuLa_u-222" value="ROUTE TO&amp;nbsp;" style="whiteSpace=wrap;html=1;rounded=1;" vertex="1" parent="WIyWlLk6GJQsqaUBKTNV-1">
          <mxGeometry x="2860" y="1633" width="160" height="65" as="geometry" />
        </mxCell>
      </root>
    </mxGraphModel>
  </diagram>
</mxfile>
